[Header]
FileType HTR
DataType HTRS
FileVersion 1
NumSegments 64
NumFrames 3
DataFrameRate 30
EulerRotationOrder ZYX
CalibrationUnits mm
RotationUnits Degrees
GlobalAxisofGravity Y
BoneLengthAxis Y
ScaleFactor 1.0
[SegmentNames&Hierarchy]
Hips	GLOBAL
Spine	Hips
Spine1	Spine
Spine2	Spine1
Neck	Spine2
Head	Neck
LeftEye	Head
RightEye	Head
LeftShoulder	Spine2
LeftArm	LeftShoulder
LeftForeArm	LeftArm
LeftHand	LeftForeArm
LeftHandThumb1	LeftHand
LeftHandThumb2	LeftHandThumb1
LeftHandThumb3	LeftHandThumb2
LeftHandThumb4	LeftHandThumb3
LeftHandIndex1	LeftHand
LeftHandIndex2	LeftHandIndex1
LeftHandIndex3	LeftHandIndex2
LeftHandIndex4	LeftHandIndex3
LeftHandMiddle1	LeftHand
LeftHandMiddle2	LeftHandMiddle1
LeftHandMiddle3	LeftHandMiddle2
LeftHandMiddle4	LeftHandMiddle3
LeftHandRing1	LeftHand
LeftHandRing2	LeftHandRing1
LeftHandRing3	LeftHandRing2
LeftHandRing4	LeftHandRing3
LeftHandPinky1	LeftHand
LeftHandPinky2	LeftHandPinky1
LeftHandPinky3	LeftHandPinky2
LeftHandPinky4	LeftHandPinky3
RightShoulder	Spine2
RightArm	RightShoulder
RightForeArm	RightArm
RightHand	RightForeArm
RightHandPinky1	RightHand
RightHandPinky2	RightHandPinky1
RightHandPinky3	RightHandPinky2
RightHandPinky4	RightHandPinky3
RightHandRing1	RightHand
RightHandRing2	RightHandRing1
RightHandRing3	RightHandRing2
RightHandRing4	RightHandRing3
RightHandMiddle1	RightHand
RightHandMiddle2	RightHandMiddle1
RightHandMiddle3	RightHandMiddle2
RightHandMiddle4	RightHandMiddle3
RightHandIndex1	RightHand
RightHandIndex2	RightHandIndex1
RightHandIndex3	RightHandIndex2
RightHandIndex4	RightHandIndex3
RightHandThumb1	RightHand
RightHandThumb2	RightHandThumb1
RightHandThumb3	RightHandThumb2
RightHandThumb4	RightHandThumb3
LeftUpLeg	Hips
LeftLeg	LeftUpLeg
LeftFoot	LeftLeg
LeftToeBase	LeftFoot
RightUpLeg	Hips
RightLeg	RightUpLeg
RightFoot	RightLeg
RightToeBase	RightFoot
[BasePosition]
Hips	0	0	0	0	0	0	1
Spine	0	0	0	0	0	0	1
Spine1	0	0	0	0	0	0	1
Spine2	0	0	0	0	0	0	1
Neck	0	0	0	0	0	0	1
Head	0	0	0	0	0	0	1
LeftEye	0	0	0	0	0	0	1
RightEye	0	0	0	0	0	0	1
LeftShoulder	0	0	0	0	0	0	1
LeftArm	0	0	0	0	0	0	1
LeftForeArm	0	0	0	0	0	0	1
LeftHand	0	0	0	0	0	0	1
LeftHandThumb1	0	0	0	0	0	0	1
LeftHandThumb2	0	0	0	0	0	0	1
LeftHandThumb3	0	0	0	0	0	0	1
LeftHandThumb4	0	0	0	0	0	0	1
LeftHandIndex1	0	0	0	0	0	0	1
LeftHandIndex2	0	0	0	0	0	0	1
LeftHandIndex3	0	0	0	0	0	0	1
LeftHandIndex4	0	0	0	0	0	0	1
LeftHandMiddle1	0	0	0	0	0	0	1
LeftHandMiddle2	0	0	0	0	0	0	1
LeftHandMiddle3	0	0	0	0	0	0	1
LeftHandMiddle4	0	0	0	0	0	0	1
LeftHandRing1	0	0	0	0	0	0	1
LeftHandRing2	0	0	0	0	0	0	1
LeftHandRing3	0	0	0	0	0	0	1
LeftHandRing4	0	0	0	0	0	0	1
LeftHandPinky1	0	0	0	0	0	0	1
LeftHandPinky2	0	0	0	0	0	0	1
LeftHandPinky3	0	0	0	0	0	0	1
LeftHandPinky4	0	0	0	0	0	0	1
RightShoulder	0	0	0	0	0	0	1
RightArm	0	0	0	0	0	0	1
RightForeArm	0	0	0	0	0	0	1
RightHand	0	0	0	0	0	0	1
RightHandPinky1	0	0	0	0	0	0	1
RightHandPinky2	0	0	0	0	0	0	1
RightHandPinky3	0	0	0	0	0	0	1
RightHandPinky4	0	0	0	0	0	0	1
RightHandRing1	0	0	0	0	0	0	1
RightHandRing2	0	0	0	0	0	0	1
RightHandRing3	0	0	0	0	0	0	1
RightHandRing4	0	0	0	0	0	0	1
RightHandMiddle1	0	0	0	0	0	0	1
RightHandMiddle2	0	0	0	0	0	0	1
RightHandMiddle3	0	0	0	0	0	0	1
RightHandMiddle4	0	0	0	0	0	0	1
RightHandIndex1	0	0	0	0	0	0	1
RightHandIndex2	0	0	0	0	0	0	1
RightHandIndex3	0	0	0	0	0	0	1
RightHandIndex4	0	0	0	0	0	0	1
RightHandThumb1	0	0	0	0	0	0	1
RightHandThumb2	0	0	0	0	0	0	1
RightHandThumb3	0	0	0	0	0	0	1
RightHandThumb4	0	0	0	0	0	0	1
LeftUpLeg	0	0	0	0	0	0	1
LeftLeg	0	0	0	0	0	0	1
LeftFoot	0	0	0	0	0	0	1
LeftToeBase	0	0	0	0	0	0	1
RightUpLeg	0	0	0	0	0	0	1
RightLeg	0	0	0	0	0	0	1
RightFoot	0	0	0	0	0	0	1
RightToeBase	0	0	0	0	0	0	1
[Hips]
24	1.998802543	1027.490845	-26.94353104	-22.12492943	75.62876129	-18.5923233	1.0
25	8.209558487	1027.467529	-16.83359718	-26.63547707	78.60165405	-23.16376686	1.0
26	12.08280468	1027.082642	-9.845629692	-31.85519981	80.85337067	-28.40716743	1.0
[Spine]
24	0	101.8159943	1.315000057	3.820674181	0.8514640927	1.417526126	1.0
25	0	101.8159943	1.315000057	3.66836834	0.8130270839	1.780806184	1.0
26	0	101.8159943	1.315000057	3.544886351	0.9262448549	2.461470127	1.0
[Spine1]
24	0	100.8349991	-10.00800037	1.252418518	0.07403213531	2.631559134	1.0
25	0	100.8349991	-10.00800037	1.246343493	0.01502262335	2.361600399	1.0
26	0	100.8349991	-10.00800037	1.229624867	0.0418546088	2.145968437	1.0
[Spine2]
24	0	91	-13.73399925	1.241613746	0.01016646996	1.711159706	1.0
25	0	91	-13.73399925	1.228013277	0.01127259899	1.890645027	1.0
26	0	91	-13.73399925	1.205110192	0.06885242462	1.952653408	1.0
[Neck]
24	0	166.7169952	-25.16200066	5.658569813	0.6762801409	0.5399659872	1.0
25	0	166.7169952	-25.16200066	5.627058983	0.2918280065	0.5177037716	1.0
26	0	166.7169952	-25.16200066	5.627287865	0.07086551189	0.47369048	1.0
[Head]
24	0	96.17900085	16.84999847	-6.806825638	5.885165215	-2.240666151	1.0
25	0	96.17900085	16.84999847	-7.117555141	3.962434053	-1.442655563	1.0
26	0	96.17900085	16.84999847	-7.322132587	2.640640497	-0.9021529555	1.0
[LeftEye]
24	30.6760006	64.09500122	92.83599854	0	0	0	1.0
25	30.6760006	64.09500122	92.83599854	0	0	0	1.0
26	30.6760006	64.09500122	92.83599854	0	0	0	1.0
[RightEye]
24	-30.6760006	64.09500122	92.83499908	0	0	0	1.0
25	-30.6760006	64.09500122	92.83499908	0	0	0	1.0
26	-30.6760006	64.09500122	92.83499908	0	0	0	1.0
[LeftShoulder]
24	45.70400238	109.4599991	-26.28000069	6.381422997	-9.028679848	-16.66995621	1.0
25	45.70400238	109.4599991	-26.28000069	5.976112366	-11.26330853	-15.52088165	1.0
26	45.70400238	109.4599991	-26.28000069	5.54856348	-13.55719662	-14.56739235	1.0
[LeftArm]
24	105.923996	-5.24600029	-22.32099915	23.29747772	-1.308131814	-66.50360107	1.0
25	105.923996	-5.24600029	-22.32099915	22.44169044	-1.585059404	-68.05350494	1.0
26	105.923996	-5.24600029	-22.32099915	21.66568947	-2.071810722	-69.37401581	1.0
[LeftForeArm]
24	278.414978	-0.0009999999311	0	-6.97633368e-07	-8.009235382	-0.0001971348247	1.0
25	278.414978	-0.0009999999311	0	2.556629624e-06	-5.878735065	-0.0002037967206	1.0
26	278.414978	-0.0009999999311	0	8.674091987e-06	-4.02482605	-0.0002129267814	1.0
[LeftHand]
24	283.2879944	0	0	-37.60122681	-3.143285275	6.344352245	1.0
25	283.2879944	0	0	-36.02719116	-3.540220261	2.25417304	1.0
26	283.2879944	0	0	-34.42332077	-4.119030952	-1.241480708	1.0
[LeftHandThumb1]
24	24.6609993	-15.75	26.8239994	-0.4889881611	2.201389551	4.818526268	1.0
25	24.6609993	-15.75	26.8239994	-0.4889881611	2.201389551	4.818526268	1.0
26	24.6609993	-15.75	26.8239994	-0.4889881611	2.201389551	4.818526268	1.0
[LeftHandThumb2]
24	32.29800034	-18.64699936	18.64699936	18.5356102	18.71090889	22.3179245	1.0
25	32.29800034	-18.64699936	18.64699936	18.65275574	18.87326813	22.42629623	1.0
26	32.29800034	-18.64699936	18.64699936	18.99258232	19.16868973	22.6595993	1.0
[LeftHandThumb3]
24	26.52600098	-15.31499958	15.31499958	-13.06066322	6.055963039	7.742615223	1.0
25	26.52600098	-15.31499958	15.31499958	-13.06751442	6.013442993	7.769005775	1.0
26	26.52600098	-15.31499958	15.31499958	-13.08738136	5.883488655	7.823777676	1.0
[LeftHandThumb4]
24	19.54599953	-11.28499985	11.28499985	0	0	0	1.0
25	19.54599953	-11.28499985	11.28499985	0	0	0	1.0
26	19.54599953	-11.28499985	11.28499985	0	0	0	1.0
[LeftHandIndex1]
24	91.09299469	-5.170999527	22.60099792	0.1061207727	-1.145319104	-7.141371727	1.0
25	91.09299469	-5.170999527	22.60099792	0.1103857234	-1.131817818	-7.158440113	1.0
26	91.09299469	-5.170999527	22.60099792	0.1240005419	-1.082704067	-7.259382248	1.0
[LeftHandIndex2]
24	36.76399994	0	0	-0.2668994367	1.74582231	-17.38310242	1.0
25	36.76399994	0	0	-0.2669119239	1.745810151	-17.38309288	1.0
26	36.76399994	0	0	-0.2669069767	1.745808482	-17.3830986	1.0
[LeftHandIndex3]
24	28.83100128	0	0	-0.05752280354	0.8179953098	-8.044993401	1.0
25	28.83100128	0	0	-0.05751888826	0.8180049062	-8.045002937	1.0
26	28.83100128	0	0	-0.05752800778	0.8180078864	-8.044995308	1.0
[LeftHandIndex4]
24	23.92700005	0	0	0	0	0	1.0
25	23.92700005	0	0	0	0	0	1.0
26	23.92700005	0	0	0	0	0	1.0
[LeftHandMiddle1]
24	95.33399963	0	0	-0.7639323473	2.580663681	-15.26281738	1.0
25	95.33399963	0	0	-0.7655154467	2.562641144	-15.28707981	1.0
26	95.33399963	0	0	-0.7723351717	2.54676342	-15.38973236	1.0
[LeftHandMiddle2]
24	36.98199844	0	0	-0.2657120824	1.741994143	-17.34384727	1.0
25	36.98199844	0	0	-0.2658887804	1.74258101	-17.34989929	1.0
26	36.98199844	0	0	-0.2663306594	1.743944049	-17.36387634	1.0
[LeftHandMiddle3]
24	29.50900078	0	0	-0.2972098887	1.839802146	-18.35185242	1.0
25	29.50900078	0	0	-0.2973978817	1.840363979	-18.35770035	1.0
26	29.50900078	0	0	-0.2978449762	1.84168601	-18.37152481	1.0
[LeftHandMiddle4]
24	28.3390007	0	0	0	0	0	1.0
25	28.3390007	0	0	0	0	0	1.0
26	28.3390007	0	0	0	0	0	1.0
[LeftHandRing1]
24	91.04499817	-0.4390000105	-18.65100098	-1.169338346	3.242465973	-20.96230125	1.0
25	91.04499817	-0.4390000105	-18.65100098	-1.168111801	3.252458811	-20.9457798	1.0
26	91.04499817	-0.4390000105	-18.65100098	-1.169974566	3.300631285	-20.96973038	1.0
[LeftHandRing2]
24	31.54000092	0	0	-0.3830895424	2.080733299	-20.86208725	1.0
25	31.54000092	0	0	-0.3831214607	2.080832243	-20.86301613	1.0
26	31.54000092	0	0	-0.3834943175	2.081784487	-20.87296867	1.0
[LeftHandRing3]
24	29.37700081	0	0	-0.280254066	1.7879076	-17.81619835	1.0
25	29.37700081	0	0	-0.2802774012	1.787983179	-17.81707764	1.0
26	29.37700081	0	0	-0.280583322	1.788918495	-17.82674789	1.0
[LeftHandRing4]
24	26.47500038	0	0	0	0	0	1.0
25	26.47500038	0	0	0	0	0	1.0
26	26.47500038	0	0	0	0	0	1.0
[LeftHandPinky1]
24	80.77799988	-4.887000084	-38.06099701	-1.664177418	5.576880455	-26.87159348	1.0
25	80.77799988	-4.887000084	-38.06099701	-1.66943872	5.506458759	-26.8924427	1.0
26	80.77799988	-4.887000084	-38.06099701	-1.676081061	5.425689697	-26.9624958	1.0
[LeftHandPinky2]
24	36	0	0	-0.266903013	1.745828629	-17.38312912	1.0
25	36	0	0	-0.2669050992	1.74584353	-17.38317299	1.0
26	36	0	0	-0.2669553459	1.745967865	-17.38469887	1.0
[LeftHandPinky3]
24	21.14200211	0	0	-0.240207985	1.658157587	-16.48413086	1.0
25	21.14200211	0	0	-0.2401977479	1.658109903	-16.48382378	1.0
26	21.14200211	0	0	-0.2402356863	1.658252716	-16.48502541	1.0
[LeftHandPinky4]
24	19.75699997	0	0	0	0	0	1.0
25	19.75699997	0	0	0	0	0	1.0
26	19.75699997	0	0	0	0	0	1.0
[RightShoulder]
24	-45.70000076	109.4620056	0	5.114519596	14.16040516	16.00979805	1.0
25	-45.70000076	109.4620056	0	5.128569603	14.23507404	15.88373661	1.0
26	-45.70000076	109.4620056	0	5.145543098	14.33076763	15.72980309	1.0
[RightArm]
24	-105.9280014	-5.248000145	-22.32099915	28.64746475	1.104865074	60.41109085	1.0
25	-105.9280014	-5.248000145	-22.32099915	29.27004051	1.909900308	61.72133255	1.0
26	-105.9280014	-5.248000145	-22.32099915	29.75451088	2.253965616	62.41497803	1.0
[RightForeArm]
24	-278.414978	0	0	4.572416401e-06	8.495319366	9.849348316e-06	1.0
25	-278.414978	0	0	-4.685821295e-07	7.68435812	1.852115383e-05	1.0
26	-278.414978	0	0	4.520183211e-06	7.16379261	1.907888873e-05	1.0
[RightHand]
24	-283.2879944	0	0.0009999999311	-20.44891739	-0.4787883162	7.102179527	1.0
25	-283.2879944	0	0.0009999999311	-19.83842087	0.8405910134	6.966675282	1.0
26	-283.2879944	0	0.0009999999311	-19.66333961	1.609739423	6.749271393	1.0
[RightHandPinky1]
24	-80.76699829	-4.885000229	-38.06000137	-1.591051579	-4.417525768	26.90863991	1.0
25	-80.76699829	-4.885000229	-38.06000137	-1.606939793	-4.359884262	26.96331215	1.0
26	-80.76699829	-4.885000229	-38.06000137	-1.597754121	-4.395503998	26.92310333	1.0
[RightHandPinky2]
24	-36	0	0.0009999999311	-0.2127872407	-1.388956189	17.43898773	1.0
25	-36	0	0.0009999999311	-0.2127899826	-1.388972282	17.43898773	1.0
26	-36	0	0.0009999999311	-0.2127854377	-1.388965607	17.4389782	1.0
[RightHandPinky3]
24	-21.14200211	0	0	-0.1918590665	-1.320391059	16.53373909	1.0
25	-21.14200211	0	0	-0.1918530315	-1.320386887	16.5337429	1.0
26	-21.14200211	0	0	-0.1918519437	-1.320394516	16.533741	1.0
[RightHandPinky4]
24	-19.75699997	0	0	0	0	0	1.0
25	-19.75699997	0	0	0	0	0	1.0
26	-19.75699997	0	0	0	0	0	1.0
[RightHandRing1]
24	-91.03599548	-0.4390000105	-18.65100098	-1.081393242	-2.766718864	21.02691841	1.0
25	-91.03599548	-0.4390000105	-18.65100098	-1.079383612	-2.768411636	20.99673843	1.0
26	-91.03599548	-0.4390000105	-18.65100098	-1.07327199	-2.78283143	20.90405083	1.0
[RightHandRing2]
24	-31.54000092	0	0	-0.3065742254	-1.658430815	20.94509697	1.0
25	-31.54000092	0	0	-0.3065806329	-1.658436894	20.94509506	1.0
26	-31.54000092	0	0	-0.3065781891	-1.658455014	20.94509506	1.0
[RightHandRing3]
24	-29.37700081	0	0	-0.2244393975	-1.425546885	17.89369583	1.0
25	-29.37700081	0	0	-0.2244377434	-1.42555213	17.89369392	1.0
26	-29.37700081	0	0	-0.2244383395	-1.42555058	17.89369011	1.0
[RightHandRing4]
24	-26.47500038	0	0	0	0	0	1.0
25	-26.47500038	0	0	0	0	0	1.0
26	-26.47500038	0	0	0	0	0	1.0
[RightHandMiddle1]
24	-95.32500458	0	0	-0.7146661282	-2.17414546	15.23022461	1.0
25	-95.32500458	0	0	-0.7167884707	-2.160921574	15.2660532	1.0
26	-95.32500458	0	0	-0.7158828974	-2.139331102	15.25129032	1.0
[RightHandMiddle2]
24	-36.98199844	0	0	-0.2137511522	-1.392027855	17.45915794	1.0
25	-36.98199844	0	0	-0.2139128447	-1.392521024	17.46550941	1.0
26	-36.98199844	0	0	-0.2138647437	-1.392395735	17.46386337	1.0
[RightHandMiddle3]
24	-29.50900078	0	0	-0.2389528453	-1.47174561	18.46814156	1.0
25	-29.50900078	0	0	-0.2391101122	-1.47223115	18.47459984	1.0
26	-29.50900078	0	0	-0.2390731871	-1.472138524	18.47307777	1.0
[RightHandMiddle4]
24	-28.3390007	0	0.0009999999311	0	0	0	1.0
25	-28.3390007	0	0.0009999999311	0	0	0	1.0
26	-28.3390007	0	0.0009999999311	0	0	0	1.0
[RightHandIndex1]
24	-91.08300018	-5.167999744	22.60099792	0.1478175819	1.209252357	7.521118641	1.0
25	-91.08300018	-5.167999744	22.60099792	0.1423265934	1.224063754	7.493256569	1.0
26	-91.08300018	-5.167999744	22.60099792	0.1454702616	1.241018653	7.372416496	1.0
[RightHandIndex2]
24	-36.76399994	0	0	-0.2130007446	-1.389635324	17.42794991	1.0
25	-36.76399994	0	0	-0.2128493637	-1.389166594	17.42195129	1.0
26	-36.76399994	0	0	-0.2124700844	-1.387950778	17.40649986	1.0
[RightHandIndex3]
24	-28.83100128	0	0	-0.04599653557	-0.651745379	8.073800087	1.0
25	-28.83100128	0	0	-0.04592597857	-0.6512744427	8.067814827	1.0
26	-28.83100128	0	0	-0.04575599357	-0.6500089765	8.052393913	1.0
[RightHandIndex4]
24	-23.92700005	0	0	0	0	0	1.0
25	-23.92700005	0	0	0	0	0	1.0
26	-23.92700005	0	0	0	0	0	1.0
[RightHandThumb1]
24	-24.64799881	-15.72700024	26.82600021	-1.658465981	-0.2891423702	-4.221325874	1.0
25	-24.64799881	-15.72700024	26.82600021	-1.658465981	-0.2891423702	-4.221325874	1.0
26	-24.64799881	-15.72700024	26.82600021	-1.658465981	-0.2891423702	-4.221325874	1.0
[RightHandThumb2]
24	-32.29800034	-18.64699936	18.64699936	22.72138405	-23.45111084	-24.08686829	1.0
25	-32.29800034	-18.64699936	18.64699936	22.61260223	-23.49320793	-24.09536743	1.0
26	-32.29800034	-18.64699936	18.64699936	22.47501183	-23.57471848	-24.12371254	1.0
[RightHandThumb3]
24	-26.52600098	-15.31399918	15.31399918	-14.48582458	-6.708266735	-11.37593937	1.0
25	-26.52600098	-15.31399918	15.31399918	-14.47613716	-6.705790043	-11.37770367	1.0
26	-26.52600098	-15.31399918	15.31399918	-14.4729414	-6.713415146	-11.37765408	1.0
[RightHandThumb4]
24	-19.54599953	-11.28499985	11.28499985	0	0	0	1.0
25	-19.54599953	-11.28499985	11.28499985	0	0	0	1.0
26	-19.54599953	-11.28499985	11.28499985	0	0	0	1.0
[LeftUpLeg]
24	82.07800293	-67.51699829	-15.99599934	-12.64351559	34.87541199	5.679176807	1.0
25	82.07800293	-67.51699829	-15.99599934	-12.69549274	35.05143738	5.853693485	1.0
26	82.07800293	-67.51699829	-15.99599934	-12.85841179	35.05475616	5.956847191	1.0
[LeftLeg]
24	0	-443.7049866	2.845999956	18.10175896	-2.134638786	7.358997822	1.0
25	0	-443.7049866	2.845999956	17.67307663	-5.211964607	6.090291977	1.0
26	0	-443.7049866	2.845999956	17.56746864	-7.453665733	5.016389847	1.0
[LeftFoot]
24	0	-444.2789917	-29.8219986	-1.531863093	-8.73049736	-5.891503334	1.0
25	0	-444.2789917	-29.8219986	-1.353640795	-8.70848465	-5.888055801	1.0
26	0	-444.2789917	-29.8219986	-1.227074385	-8.688215256	-5.774467468	1.0
[LeftToeBase]
24	0	-87.28699493	107.1060028	-4.928526402	7.008120065e-06	2.919936605e-06	1.0
25	0	-87.28699493	107.1060028	-4.928526402	-2.42350834e-05	-7.616515063e-08	1.0
26	0	-87.28699493	107.1060028	-4.92852354	-2.630723975e-05	7.464088867e-07	1.0
[RightUpLeg]
24	-82.07800293	-67.51699829	-15.99599934	-3.901320696	-10.30602264	3.321607113	1.0
25	-82.07800293	-67.51699829	-15.99599934	-3.461604357	-10.30554008	3.682244539	1.0
26	-82.07800293	-67.51699829	-15.99599934	-3.176742554	-10.36069965	3.919336557	1.0
[RightLeg]
24	0	-443.7049866	2.861999989	12.39601994	-1.666599035	-3.61464262	1.0
25	0	-443.7049866	2.861999989	13.07534218	-4.921420574	-4.405315399	1.0
26	0	-443.7049866	2.861999989	13.56331348	-7.245554447	-5.0196805	1.0
[RightFoot]
24	0	-444.2770081	-29.83799934	-4.245024681	-1.023320794	3.901143551	1.0
25	0	-444.2770081	-29.83799934	-5.282560349	-1.330914497	3.928533077	1.0
26	0	-444.2770081	-29.83799934	-6.054439068	-1.311574817	3.977015734	1.0
[RightToeBase]
24	0	-87.28699493	107.1060028	-7.284660816	-4.01926809e-06	-3.969249462e-07	1.0
25	0	-87.28699493	107.1060028	-7.282876492	9.037366908e-06	-2.363395424e-06	1.0
26	0	-87.28699493	107.1060028	-7.282878876	4.536285815e-06	2.791765155e-06	1.0
[EndOfFile]
